# xmcd
#
# Track frame offsets:
#	150
#	16292
#	34991
#	53839
#	67648
#	81557
#	96938
#	114116
#	126750
#	144996
#	164873
#	178286
#	193825
#	208002
#	228917
#	246555
#	265153
#	278088
#	278813
#	279561
#	280263
#	281038
#	281892
#
# Disc length: 3766
#
# Revision: 3
# Processed by: cddbd v1.5.1PL0 Copyright (c) Steve Scherf et al.
# Submitted via: VisiTrax 2.9.9.209 - For more info visit www.synapsa.com
# Normalized: r2:DSETVAR1
#
DISCID=6d0eb417
DTITLE=Various Artist - CDX 338 february 2004
DYEAR=2004
DGENRE=Country
TTITLE0=Lane Turner - Always Wanting More - Breathless
TTITLE1=Julie Roberts - Break Down Here
TTITLE2=Sherrie Austin - Drivin' Into The Sun
TTITLE3=Donovan Chapman - Hey Hollywood
TTITLE4=Montgomery Gentry - If You Ever Stop Loving Me
TTITLE5=Shania Twain - It Only Hurts When I'm Breathing
TTITLE6=Colt Prather - I Won't Go On And On
TTITLE7=Michelle Poe - Just One Of The Boys
TTITLE8=Andy Griggs - She Thinks She Needs Me
TTITLE9=Cross Canadian Ragweed - Sick And Tired
TTITLE10=Billy Dean - Thank God I'm A Country Boy
TTITLE11=Shane Sellers - You Can't Count Me Out Yet
TTITLE12=Carly Goodwin - Baby Come Back Home
TTITLE13=Rick Marcotte - Bigger Than Life
TTITLE14=Brooks Atwood - Gone To Pieces
TTITLE15=Crissy Cummings - Whole Lotta Life
TTITLE16=Kacey Jones - Show Up Naked, Bring Beer
TTITLE17=Jill King - Station Liners
TTITLE18=Jill King - Station Liners
TTITLE19=Jill King - Station Liners
TTITLE20=Jill King - Station Liners
TTITLE21=Jill King - Station Liners
TTITLE22=Jill King - Station Liners
EXTD=
EXTT0=
EXTT1=
EXTT2=
EXTT3=
EXTT4=
EXTT5=
EXTT6=
EXTT7=
EXTT8=
EXTT9=
EXTT10=
EXTT11=
EXTT12=
EXTT13=
EXTT14=
EXTT15=
EXTT16=
EXTT17=
EXTT18=
EXTT19=
EXTT20=
EXTT21=
EXTT22=
PLAYORDER=
